<svg width="111" height="98" viewBox="0 0 111 98" fill="none" xmlns="http://www.w3.org/2000/svg">
<g clip-path="url(#clip0_31_193)">
<path d="M88.8 38.1111C88.8 32.1059 83.8217 27.2222 77.7 27.2222H69.7413L56.3214 5.28656C55.3324 3.67785 53.9375 2.34629 52.2713 1.4203C50.6051 0.494315 48.7237 0.00515387 46.8087 0H16.65V10.8889H46.8087L56.7987 27.2222H11.1C4.97835 27.2222 0 32.1059 0 38.1111V87.1111C0 93.1163 4.97835 98 11.1 98H77.7C83.8217 98 88.8 93.1163 88.8 87.1111V70.7778L111 81.6667V43.5556L88.8 54.4444V38.1111ZM49.95 81.6667H16.65V70.7778H49.95V81.6667Z" fill="#443E87"/>
</g>
<defs>
<clipPath id="clip0_31_193">
<rect width="111" height="98" fill="white"/>
</clipPath>
</defs>
</svg>
