<svg width="521" height="134" viewBox="0 0 521 134" fill="none" xmlns="http://www.w3.org/2000/svg">
<path d="M66.7787 0.433529C66.2911 0.686989 64.4435 1.67342 62.6646 2.6256C60.8926 3.57779 57.74 5.26294 55.6589 6.37268C51.4898 8.60585 42.3481 13.4901 34.2984 17.7989C31.4274 19.3333 25.9259 22.2789 22.0727 24.3408C18.2196 26.3959 15.0121 28.1359 14.9365 28.1975C14.6 28.4989 14.5244 29.1702 14.7785 29.6087C14.9503 29.9101 14.6618 29.7457 18.7416 31.924C20.1565 32.6844 23.4052 34.4175 25.9533 35.7807C32.8904 39.4935 35.1226 40.6855 37.7188 42.0761C49.4431 48.344 62.4036 55.2765 64.629 56.4753C66.1263 57.2767 67.4725 57.9618 67.6167 58.0029C67.7953 58.0508 67.9601 58.0508 68.1387 58.0029C68.2829 57.9686 69.1621 57.5233 70.0962 57.0233C71.0371 56.5232 74.1828 54.838 77.0881 53.283C81.8204 50.7485 84.8837 49.1181 90.7218 45.9876C91.7246 45.4532 98.8196 41.6651 106.485 37.5618C114.157 33.4653 120.53 30.0471 120.654 29.9649C120.922 29.7936 121.149 29.3552 121.149 29.0058C121.149 28.7524 120.956 28.2934 120.791 28.1633C120.743 28.1222 119.006 27.1768 116.924 26.0671C114.85 24.9573 108.696 21.6692 103.257 18.7579C68.4958 0.16637 68.2623 0.0430679 67.967 0.00881577C67.706 -0.0254364 67.5686 0.0225143 66.7787 0.433529Z" fill="#FBFBFB"/>
<path d="M15.2458 34.3559C15.0054 34.4723 14.2637 35.5615 10.1358 41.8363L8.98877 43.5763V60.3388V77.1013L9.14674 77.3342C9.47642 77.8343 9.09179 77.8069 15.7541 77.8069C22.4164 77.8069 22.0317 77.8343 22.3614 77.3342L22.5194 77.1013V60.3319V43.5694L20.6924 40.8019C16.2761 34.1229 16.5439 34.5134 16.2623 34.3696C15.9395 34.212 15.5549 34.2051 15.2458 34.3559ZM18.0825 40.8088L20.3902 44.2955L20.3765 59.9757L20.3559 75.649H15.7541H11.1523L11.1317 59.9689L11.118 44.2887L12.6427 41.987C15.2596 38.0344 15.7335 37.322 15.7541 37.322C15.7678 37.322 16.8118 38.8907 18.0825 40.8088Z" fill="#FBFBFB"/>
<path d="M113.662 35.4863C113.538 35.5753 113.38 35.7534 113.312 35.8836C113.188 36.1096 113.181 36.7124 113.181 53.3174V70.5046L110.372 73.3201C107.989 75.6971 107.549 76.1698 107.481 76.4164C107.371 76.7794 107.439 77.1288 107.666 77.396C108.03 77.8275 107.652 77.807 114.246 77.807C119.658 77.807 120.29 77.7933 120.503 77.6974C120.942 77.4919 121.149 77.0123 121.052 76.4575C121.004 76.2314 120.661 75.8615 118.154 73.3543L115.31 70.5115V53.2832C115.31 36.2124 115.31 36.0548 115.173 35.8288C114.871 35.3356 114.129 35.1712 113.662 35.4863ZM117.302 75.6286C117.302 75.6903 111.299 75.704 111.231 75.6355C111.203 75.6081 111.876 74.9025 112.714 74.0599L114.246 72.5323L115.771 74.053C116.615 74.8956 117.302 75.6012 117.302 75.6286Z" fill="#FBFBFB"/>
<path d="M29.0787 42.3157C28.7765 42.4527 28.4468 42.7952 28.3918 43.0281C28.3712 43.1103 28.3644 46.234 28.3712 49.9743L28.3918 56.7628L28.5979 57.0163C28.7627 57.215 29.7518 57.7698 33.6118 59.8386C36.2561 61.2497 44.9102 65.8737 52.8431 70.1208C60.7761 74.3611 67.3903 77.8753 67.5414 77.9301C67.7062 77.9849 67.926 78.0054 68.0771 77.9849C68.2419 77.9575 73.613 75.1215 82.0542 70.6072C89.6025 66.5724 98.284 61.9279 101.354 60.2839C104.424 58.6398 107.021 57.2218 107.117 57.1259C107.494 56.7491 107.481 57.0369 107.481 49.8441C107.481 43.1994 107.481 43.1857 107.337 42.8843C106.959 42.1102 105.908 41.9595 105.331 42.5897C105.194 42.7404 105.056 42.9802 105.015 43.124C104.967 43.2953 104.939 45.3846 104.939 49.4468V55.5093L103.586 56.2422C102.838 56.6395 99.6921 58.3247 96.5944 59.9825C93.4968 61.6334 86.0515 65.6202 80.0417 68.833C74.0388 72.0457 68.8464 74.8201 68.5029 74.9982L67.8848 75.327L60.5357 71.3881C56.4971 69.2234 52.3074 66.9834 51.2291 66.408C50.1507 65.8326 46.1946 63.7158 42.4376 61.7019C38.6806 59.6947 34.539 57.4753 33.234 56.7765L30.8644 55.5093L30.8301 49.2755C30.7958 43.6584 30.782 43.0213 30.6859 42.8363C30.5348 42.5692 30.363 42.4185 30.054 42.2883C29.7243 42.1513 29.4152 42.1582 29.0787 42.3157Z" fill="#FBFBFB"/>
<path d="M52.74 101.755C49.7728 102.132 47.7192 104.269 47.314 107.4C47.1491 108.695 47.2796 110.27 47.6574 111.373C48.0352 112.51 48.4885 113.229 49.2921 113.99C50.4734 115.099 51.9432 115.62 53.9076 115.62C55.6178 115.62 56.8884 115.25 58.0835 114.408C58.6536 114.003 58.7841 113.784 58.7841 113.236C58.7841 112.503 58.4819 112.085 57.8912 112.01C57.6371 111.976 57.4929 112.031 56.5656 112.496C55.3568 113.099 54.8692 113.243 54.0106 113.243C52.4996 113.236 51.4281 112.62 50.8443 111.414C50.4665 110.633 50.3704 110.071 50.3704 108.667C50.3704 107.215 50.4734 106.667 50.8924 105.824C51.4762 104.66 52.5133 104.084 54.045 104.084C55.0477 104.084 55.6109 104.256 56.7854 104.934C57.1082 105.119 57.5066 105.29 57.6577 105.317C58.3033 105.413 58.7841 104.9 58.7841 104.119C58.7841 103.872 58.7429 103.612 58.6811 103.495C58.427 103.009 56.9983 102.194 55.9337 101.927C54.8073 101.639 53.9694 101.598 52.74 101.755Z" fill="#FBFBFB"/>
<path d="M105.805 101.721C104.129 101.954 102.927 102.536 101.904 103.619C100.818 104.776 100.255 106.263 100.152 108.222C100.035 110.64 100.887 112.921 102.378 114.161C103.167 114.825 104.122 115.271 105.214 115.497C106.114 115.682 107.989 115.641 108.82 115.415C111.286 114.743 112.886 112.914 113.353 110.222C113.484 109.475 113.484 107.886 113.353 107.092C112.9 104.276 111.121 102.379 108.422 101.824C107.755 101.687 106.43 101.632 105.805 101.721ZM107.968 104.18C109.129 104.536 109.912 105.434 110.256 106.797C110.661 108.393 110.51 110.277 109.878 111.517C109.473 112.318 108.676 112.962 107.797 113.195C107.33 113.318 106.299 113.318 105.798 113.188C105.207 113.031 104.775 112.77 104.321 112.284C103.477 111.387 103.078 109.948 103.181 108.194C103.243 107.201 103.38 106.598 103.717 105.893C104.156 104.989 104.857 104.386 105.764 104.139C106.272 103.995 107.46 104.023 107.968 104.18Z" fill="#FBFBFB"/>
<path d="M32.0319 101.783C31.4344 101.879 31.0429 102.255 30.9055 102.879C30.8094 103.283 30.8094 109.66 30.8987 110.626C31.1116 112.873 32.0663 114.367 33.749 115.113C34.635 115.497 35.1502 115.579 36.7024 115.586C38.2752 115.586 38.6942 115.524 39.6352 115.134C41.2973 114.449 42.3138 112.983 42.5748 110.894C42.6641 110.119 42.6641 103.071 42.5748 102.728C42.4031 102.125 41.8537 101.762 41.1187 101.769C40.5555 101.769 40.1366 101.981 39.8824 102.379L39.7245 102.639L39.6833 106.749C39.642 111.161 39.642 111.126 39.2712 111.901C39.0376 112.387 38.495 112.894 38.0074 113.092C37.6502 113.229 37.4785 113.257 36.7367 113.257C36.0018 113.257 35.8233 113.229 35.4936 113.099C34.9784 112.894 34.5457 112.503 34.2847 112.01C33.8864 111.263 33.8932 111.387 33.8589 106.92C33.8177 102.851 33.8177 102.769 33.6735 102.502C33.591 102.351 33.4674 102.18 33.3987 102.118C33.0622 101.824 32.5333 101.694 32.0319 101.783Z" fill="#FBFBFB"/>
<path d="M68.2419 101.824C67.5619 102.036 67.5963 101.975 64.636 108.188C62.1016 113.497 61.9162 113.901 61.9162 114.257C61.9093 114.764 62.136 115.12 62.6373 115.374C63.0769 115.586 63.5028 115.607 63.9149 115.422C64.2789 115.25 64.3407 115.155 65.0001 113.709L65.5564 112.503L68.8532 112.483L72.15 112.469L72.6926 113.682C72.9948 114.353 73.3313 115.004 73.4481 115.134C73.8465 115.593 74.4372 115.675 75.0553 115.374C75.5498 115.127 75.7833 114.764 75.7765 114.257C75.7765 113.901 75.5979 113.51 73.0703 108.222C71.5868 105.112 70.2955 102.475 70.2131 102.358C69.8216 101.845 68.9219 101.605 68.2419 101.824ZM70.0071 107.708C70.5977 109.024 71.0785 110.126 71.0785 110.154C71.0785 110.188 70.0689 110.209 68.8395 110.209C67.0262 110.209 66.6072 110.195 66.6347 110.12C66.9026 109.414 68.8532 105.222 68.8875 105.256C68.915 105.29 69.4233 106.386 70.0071 107.708Z" fill="#FBFBFB"/>
<path d="M93.6409 101.776C93.0502 101.879 92.6518 102.242 92.5076 102.81C92.4595 103.03 92.4389 104.804 92.4527 108.839C92.4733 114.401 92.4801 114.565 92.6106 114.826C93.167 115.922 95.0352 115.819 95.3786 114.668C95.4953 114.298 95.4953 103.002 95.3854 102.667C95.1657 102.023 94.4239 101.646 93.6409 101.776Z" fill="#FBFBFB"/>
<path d="M119.122 101.817C118.71 101.927 118.312 102.324 118.195 102.728C118.147 102.92 118.126 104.783 118.14 108.818L118.161 114.627L118.346 114.935C118.786 115.689 119.94 115.819 120.537 115.189C120.922 114.784 120.908 114.942 120.942 110.736L120.977 106.852L124.068 110.804C127.323 114.969 127.598 115.305 127.873 115.449C128.195 115.613 128.608 115.641 129.006 115.524C129.487 115.38 129.83 115.004 129.94 114.497C129.995 114.25 130.009 112.428 129.995 108.462L129.974 102.776L129.823 102.488C129.521 101.933 128.923 101.666 128.243 101.79C127.838 101.865 127.522 102.112 127.337 102.488C127.193 102.776 127.193 102.865 127.193 106.598C127.193 108.695 127.172 110.414 127.145 110.414C127.11 110.407 125.606 108.523 123.793 106.222C121.32 103.084 120.434 102.009 120.256 101.92C119.912 101.748 119.521 101.714 119.122 101.817Z" fill="#FBFBFB"/>
<path d="M0.69857 101.981C0.519993 102.064 0.341416 102.221 0.217786 102.406L0.0254726 102.701L0.00486759 108.489C-0.00886909 112.86 0.00486759 114.36 0.0666826 114.586C0.176576 114.969 0.506256 115.298 0.890883 115.408C1.11754 115.47 2.18213 115.483 5.03936 115.47C8.78947 115.449 8.8925 115.442 9.16036 115.305C9.53812 115.106 9.69609 114.812 9.69609 114.319C9.69609 113.846 9.53812 113.531 9.19471 113.325C8.96118 113.195 8.83068 113.188 5.95285 113.168L2.94452 113.147V111.442V109.736L5.71246 109.715C8.24687 109.695 8.49413 109.681 8.73453 109.565C9.14663 109.359 9.29773 109.092 9.29773 108.551C9.29773 108.058 9.20157 107.852 8.82382 107.578C8.64524 107.441 8.52848 107.434 5.80861 107.4L2.97886 107.366L2.95825 105.776L2.94452 104.187L5.91164 104.167C8.64524 104.146 8.90624 104.139 9.13976 104.016C9.51065 103.838 9.69609 103.495 9.69609 103.016C9.69609 102.543 9.53812 102.228 9.19471 102.023C8.96118 101.892 8.83755 101.886 4.97068 101.872C1.17249 101.851 0.973303 101.858 0.69857 101.981Z" fill="#FBFBFB"/>
<path d="M14.5109 101.981C14.1812 102.132 13.9614 102.392 13.8653 102.749C13.8172 102.92 13.7966 105.002 13.8103 108.818L13.8309 114.627L13.9889 114.88C14.0782 115.017 14.2636 115.202 14.401 115.291L14.6551 115.449H17.5398C20.2872 115.449 20.4589 115.435 21.1457 115.291C22.4919 114.997 23.4947 114.497 24.3464 113.682C25.6513 112.455 26.2489 110.859 26.2489 108.633C26.2489 106.427 25.6445 104.865 24.3189 103.625C23.6664 103.016 22.9384 102.584 22.0455 102.29C20.9191 101.913 20.2528 101.851 17.3613 101.851C15.0123 101.851 14.7719 101.865 14.5109 101.981ZM20.4108 104.448C21.8806 104.831 22.7529 105.701 23.1169 107.167C23.2818 107.825 23.2818 109.517 23.1169 110.14C22.801 111.325 22.2034 112.113 21.2693 112.565C20.507 112.935 19.9438 113.017 18.261 113.017H16.8187V108.681C16.8187 106.29 16.8393 104.317 16.8736 104.283C16.9011 104.256 17.5879 104.249 18.3984 104.269C19.5729 104.304 19.985 104.338 20.4108 104.448Z" fill="#FBFBFB"/>
<path d="M77.363 101.934C76.8478 102.112 76.6143 102.516 76.6555 103.16C76.683 103.701 76.8135 103.927 77.2325 104.139C77.4797 104.27 77.6377 104.283 79.3342 104.304L81.168 104.324L81.1886 109.441L81.2092 114.559L81.3741 114.846C81.4702 115.011 81.6625 115.223 81.8136 115.326C82.0472 115.483 82.1777 115.524 82.6172 115.538C83.359 115.572 83.7848 115.346 84.0871 114.75C84.1832 114.552 84.1969 113.99 84.1969 109.428V104.331L86.072 104.304C87.9059 104.283 87.9471 104.283 88.2287 104.119C88.6476 103.879 88.8262 103.482 88.7781 102.934C88.7369 102.461 88.5996 102.235 88.2424 102.023C88.0157 101.892 87.8715 101.886 82.7889 101.872C79.2517 101.865 77.5003 101.886 77.363 101.934Z" fill="#FBFBFB"/>
<path d="M36.3384 123.025C34.4428 123.272 32.9317 124.491 32.3823 126.238C32.0182 127.368 31.9702 128.978 32.2655 130.088C32.5746 131.259 33.2614 132.273 34.1543 132.869C35.054 133.472 35.9332 133.712 37.2176 133.712C38.2135 133.712 38.8385 133.582 39.6627 133.191C40.8784 132.622 41.2149 132.068 40.8097 131.287C40.6929 131.047 40.3083 130.876 40.0473 130.937C39.9443 130.965 39.5871 131.129 39.2437 131.307C38.2753 131.821 37.7052 131.944 36.8398 131.848C35.6378 131.718 34.8686 130.985 34.5664 129.691C34.4496 129.17 34.429 127.704 34.532 127.156C34.8068 125.731 35.6172 124.964 36.9772 124.834C37.8082 124.752 38.6393 124.984 39.5116 125.539C39.9786 125.834 40.4045 125.848 40.6723 125.567C41.0638 125.163 41.0707 124.539 40.6929 124.162C40.1435 123.621 39.0308 123.155 37.9662 123.018C37.3206 122.943 36.9703 122.943 36.3384 123.025Z" fill="#FBFBFB"/>
<path d="M55.5903 123.114C55.3087 123.238 55.0203 123.587 54.9722 123.861C54.9516 123.984 54.9378 126.087 54.9516 128.547C54.9722 132.931 54.9722 133.013 55.1164 133.198C55.3843 133.561 55.6041 133.671 56.0299 133.671C56.4832 133.664 56.7305 133.54 56.9297 133.205C57.0602 132.999 57.067 132.842 57.067 129.985C57.067 128.341 57.0876 126.992 57.122 126.992C57.1494 126.992 58.269 128.403 59.6083 130.115C60.9476 131.835 62.1496 133.328 62.2664 133.431C62.8296 133.931 63.798 133.671 64.004 132.965C64.059 132.794 64.0727 131.246 64.059 128.211C64.0384 123.792 64.0384 123.71 63.8942 123.525C63.6263 123.162 63.4065 123.053 62.9738 123.053C62.5136 123.053 62.2732 123.19 62.0466 123.573C61.9161 123.792 61.9092 123.964 61.8749 126.745L61.8405 129.684L59.3336 126.512C57.953 124.765 56.7442 123.279 56.6412 123.203C56.4077 123.032 55.8651 122.984 55.5903 123.114Z" fill="#FBFBFB"/>
<path d="M44.8552 123.224C44.6217 123.327 44.5324 123.423 44.4225 123.662C44.292 123.964 44.292 124.108 44.3057 128.444C44.3263 133.342 44.3126 133.171 44.7384 133.431C44.9513 133.561 45.0956 133.568 48.0627 133.568C51.4831 133.568 51.4625 133.568 51.6823 133.143C51.7579 132.999 51.7853 132.821 51.7579 132.588C51.7235 132.184 51.5106 131.944 51.1191 131.855C50.9749 131.821 49.8828 131.787 48.7083 131.787H46.5585V130.492V129.191L48.7083 129.17C50.6246 129.149 50.8787 129.136 51.0779 129.026C51.6411 128.718 51.6136 127.752 51.0367 127.464C50.8924 127.396 50.3567 127.368 48.7083 127.348L46.5585 127.32V126.135V124.95L48.8457 124.923C50.865 124.902 51.1534 124.889 51.3458 124.779C51.6617 124.608 51.7991 124.306 51.7579 123.888C51.7235 123.484 51.5106 123.245 51.1191 123.156C50.9749 123.121 49.5669 123.087 48.0009 123.087C45.3222 123.087 45.1299 123.101 44.8552 123.224Z" fill="#FBFBFB"/>
<path d="M67.5068 123.156C67.3763 123.19 67.184 123.306 67.081 123.423C66.9161 123.608 66.8887 123.697 66.8887 124.039C66.8887 124.375 66.9161 124.485 67.0672 124.656C67.1634 124.772 67.3557 124.896 67.4931 124.937C67.6305 124.971 68.3448 125.005 69.0659 125.005H70.3915L70.4053 128.992L70.4259 132.986L70.5838 133.212C70.8105 133.52 71.1127 133.657 71.566 133.657C72.0674 133.657 72.3696 133.486 72.5757 133.088L72.7268 132.787V128.896V125.005H74.0523C75.4878 125.005 75.7763 124.957 76.0304 124.69C76.1747 124.539 76.1953 124.45 76.1953 124.046C76.1953 123.484 76.051 123.279 75.5771 123.162C75.22 123.073 67.8846 123.067 67.5068 123.156Z" fill="#FBFBFB"/>
<path d="M79.705 123.156C79.602 123.19 79.4509 123.272 79.3753 123.34C79.0457 123.628 79.0457 123.628 79.0457 128.362C79.0457 133.273 79.0388 133.164 79.4715 133.431C79.6913 133.561 79.808 133.568 82.7889 133.568C85.5912 133.568 85.9003 133.554 86.12 133.445C86.5665 133.225 86.6626 132.458 86.2986 132.095C86.0239 131.821 85.7217 131.787 83.462 131.787H81.3122V130.485V129.184H83.2903C84.3755 129.184 85.3851 129.149 85.5362 129.115C85.7011 129.081 85.8865 128.971 86.0033 128.841C86.2643 128.554 86.2712 127.992 86.017 127.69C85.756 127.382 85.4057 127.334 83.2353 127.334H81.3122V126.142V124.95L83.5994 124.923C85.7148 124.902 85.8934 124.895 86.0994 124.765C86.6558 124.43 86.6626 123.546 86.1063 123.245C85.9003 123.128 85.6324 123.121 82.8919 123.108C81.2504 123.101 79.8149 123.121 79.705 123.156Z" fill="#FBFBFB"/>
<path d="M90.2618 123.217C89.6986 123.477 89.726 123.21 89.726 128.362C89.726 132.807 89.726 132.924 89.8634 133.157C90.0763 133.513 90.5228 133.725 90.9898 133.677C91.4157 133.636 91.6561 133.492 91.8552 133.15C91.9789 132.937 91.9926 132.773 92.0132 131.218L92.0338 129.526H92.8099C94.005 129.526 93.9432 129.471 95.3924 131.615C96.0518 132.588 96.6768 133.451 96.7798 133.52C97.0065 133.691 97.5628 133.746 97.8856 133.643C98.2565 133.52 98.5519 133.15 98.5519 132.807C98.5519 132.465 98.4763 132.328 97.659 131.102C96.9515 130.047 96.5326 129.601 96.1273 129.451C95.9831 129.403 95.8732 129.341 95.8732 129.321C95.8732 129.3 96.0243 129.238 96.2166 129.19C96.9859 128.992 97.7689 128.279 98.0779 127.492C98.2634 126.998 98.3321 125.978 98.2084 125.423C98.023 124.587 97.4598 123.854 96.7455 123.532C95.9213 123.155 95.7496 123.135 93.0572 123.107C90.6876 123.087 90.5365 123.094 90.2618 123.217ZM94.9735 124.943C95.365 125.025 95.6878 125.224 95.9007 125.505C96.0106 125.656 96.0518 125.827 96.0655 126.224C96.0999 126.923 95.9213 127.286 95.4268 127.539C95.0971 127.704 95.0421 127.711 93.5242 127.731L91.9583 127.752V126.313V124.868H93.2976C94.0256 124.868 94.788 124.902 94.9735 124.943Z" fill="#FBFBFB"/>
<path d="M166.88 57.336C164.693 57.336 162.653 56.976 160.76 56.256C158.893 55.536 157.267 54.5226 155.88 53.216C154.52 51.9093 153.453 50.376 152.68 48.616C151.933 46.856 151.56 44.936 151.56 42.856C151.56 40.776 151.933 38.856 152.68 37.096C153.453 35.336 154.533 33.8026 155.92 32.496C157.307 31.1893 158.933 30.176 160.8 29.456C162.667 28.736 164.693 28.376 166.88 28.376C169.093 28.376 171.12 28.736 172.96 29.456C174.827 30.176 176.44 31.1893 177.8 32.496C179.187 33.776 180.267 35.296 181.04 37.056C181.813 38.816 182.2 40.7493 182.2 42.856C182.2 44.936 181.813 46.8693 181.04 48.656C180.267 50.416 179.187 51.9493 177.8 53.256C176.44 54.536 174.827 55.536 172.96 56.256C171.12 56.976 169.093 57.336 166.88 57.336ZM176.04 63.296C174.947 63.296 173.907 63.176 172.92 62.936C171.96 62.696 171 62.3093 170.04 61.776C169.107 61.2426 168.12 60.5226 167.08 59.616C166.067 58.7093 164.96 57.5893 163.76 56.256L170.56 54.536C171.28 55.5226 171.947 56.3093 172.56 56.896C173.173 57.4826 173.76 57.896 174.32 58.136C174.907 58.376 175.52 58.496 176.16 58.496C177.867 58.496 179.387 57.8026 180.72 56.416L183.6 59.856C181.707 62.1493 179.187 63.296 176.04 63.296ZM166.88 51.816C168.133 51.816 169.28 51.6026 170.32 51.176C171.387 50.7493 172.32 50.136 173.12 49.336C173.92 48.536 174.533 47.5893 174.96 46.496C175.413 45.376 175.64 44.1626 175.64 42.856C175.64 41.5226 175.413 40.3093 174.96 39.216C174.533 38.1226 173.92 37.176 173.12 36.376C172.32 35.576 171.387 34.9626 170.32 34.536C169.28 34.1093 168.133 33.896 166.88 33.896C165.627 33.896 164.467 34.1093 163.4 34.536C162.333 34.9626 161.4 35.576 160.6 36.376C159.827 37.176 159.213 38.1226 158.76 39.216C158.333 40.3093 158.12 41.5226 158.12 42.856C158.12 44.1626 158.333 45.376 158.76 46.496C159.213 47.5893 159.827 48.536 160.6 49.336C161.4 50.136 162.333 50.7493 163.4 51.176C164.467 51.6026 165.627 51.816 166.88 51.816ZM182.999 56.856L195.479 28.856H201.879L214.399 56.856H207.599L197.359 32.136H199.919L189.639 56.856H182.999ZM189.239 50.856L190.959 45.936H205.359L207.119 50.856H189.239ZM222.546 56.856V45.416L224.026 49.336L211.706 28.856H218.586L228.026 44.576H224.066L233.546 28.856H239.906L227.586 49.336L229.026 45.416V56.856H222.546ZM254.446 57.336C252.313 57.336 250.339 56.976 248.526 56.256C246.713 55.536 245.139 54.5226 243.806 53.216C242.499 51.9093 241.473 50.3493 240.726 48.536C240.006 46.7226 239.646 44.736 239.646 42.576V41.216H263.366V45.616H244.086L246.166 43.496C246.166 44.8293 246.353 46.0293 246.726 47.096C247.126 48.1626 247.686 49.0826 248.406 49.856C249.126 50.6026 249.993 51.176 251.006 51.576C252.019 51.976 253.166 52.176 254.446 52.176C255.726 52.176 256.873 51.976 257.886 51.576C258.899 51.176 259.753 50.6026 260.446 49.856C261.166 49.0826 261.713 48.176 262.086 47.136C262.459 46.096 262.646 44.9226 262.646 43.616V42.576C262.646 41.3226 262.419 40.1626 261.966 39.096C261.539 38.0293 260.939 37.1093 260.166 36.336C259.393 35.5626 258.473 34.9626 257.406 34.536C256.339 34.1093 255.193 33.896 253.966 33.896C253.006 33.896 252.033 34.016 251.046 34.256C250.059 34.496 249.113 34.856 248.206 35.336C247.326 35.816 246.539 36.4293 245.846 37.176L241.966 32.976C242.846 32.0693 243.913 31.2693 245.166 30.576C246.446 29.8826 247.833 29.3493 249.326 28.976C250.819 28.576 252.379 28.376 254.006 28.376C256.219 28.376 258.246 28.736 260.086 29.456C261.953 30.1493 263.566 31.1493 264.926 32.456C266.313 33.7626 267.366 35.296 268.086 37.056C268.833 38.816 269.206 40.736 269.206 42.816C269.206 44.9493 268.833 46.896 268.086 48.656C267.366 50.416 266.339 51.9493 265.006 53.256C263.673 54.536 262.113 55.536 260.326 56.256C258.539 56.976 256.579 57.336 254.446 57.336ZM159.12 105.856V83.136H150.16V77.856H174.56V83.136H165.6V105.856H159.12ZM190.696 106.336C188.563 106.336 186.589 105.976 184.776 105.256C182.963 104.536 181.389 103.523 180.056 102.216C178.749 100.909 177.723 99.3493 176.976 97.536C176.256 95.7226 175.896 93.736 175.896 91.576V90.216H199.616V94.616H180.336L182.416 92.496C182.416 93.8293 182.603 95.0293 182.976 96.096C183.376 97.1626 183.936 98.0826 184.656 98.856C185.376 99.6026 186.243 100.176 187.256 100.576C188.269 100.976 189.416 101.176 190.696 101.176C191.976 101.176 193.123 100.976 194.136 100.576C195.149 100.176 196.003 99.6026 196.696 98.856C197.416 98.0826 197.963 97.176 198.336 96.136C198.709 95.096 198.896 93.9226 198.896 92.616V91.576C198.896 90.3226 198.669 89.1626 198.216 88.096C197.789 87.0293 197.189 86.1093 196.416 85.336C195.643 84.5626 194.723 83.9626 193.656 83.536C192.589 83.1093 191.443 82.896 190.216 82.896C189.256 82.896 188.283 83.016 187.296 83.256C186.309 83.496 185.363 83.856 184.456 84.336C183.576 84.816 182.789 85.4293 182.096 86.176L178.216 81.976C179.096 81.0693 180.163 80.2693 181.416 79.576C182.696 78.8826 184.083 78.3493 185.576 77.976C187.069 77.576 188.629 77.376 190.256 77.376C192.469 77.376 194.496 77.736 196.336 78.456C198.203 79.1493 199.816 80.1493 201.176 81.456C202.563 82.7626 203.616 84.296 204.336 86.056C205.083 87.816 205.456 89.736 205.456 91.816C205.456 93.9493 205.083 95.896 204.336 97.656C203.616 99.416 202.589 100.949 201.256 102.256C199.923 103.536 198.363 104.536 196.576 105.256C194.789 105.976 192.829 106.336 190.696 106.336ZM210.351 105.856V77.856H223.071C226.111 77.856 228.791 78.4426 231.111 79.616C233.431 80.7626 235.245 82.376 236.551 84.456C237.858 86.536 238.511 89.0026 238.511 91.856C238.511 94.6826 237.858 97.1493 236.551 99.256C235.245 101.336 233.431 102.963 231.111 104.136C228.791 105.283 226.111 105.856 223.071 105.856H210.351ZM216.831 100.536H222.751C224.618 100.536 226.231 100.189 227.591 99.496C228.978 98.776 230.045 97.7626 230.791 96.456C231.565 95.1493 231.951 93.616 231.951 91.856C231.951 90.0693 231.565 88.536 230.791 87.256C230.045 85.9493 228.978 84.9493 227.591 84.256C226.231 83.536 224.618 83.176 222.751 83.176H216.831V100.536ZM243.398 105.856V77.856H255.518C258.025 77.856 260.185 78.2693 261.998 79.096C263.811 79.896 265.211 81.056 266.198 82.576C267.185 84.096 267.678 85.9093 267.678 88.016C267.678 90.096 267.185 91.896 266.198 93.416C265.211 94.9093 263.811 96.056 261.998 96.856C260.185 97.656 258.025 98.056 255.518 98.056H246.998L249.878 95.216V105.856H243.398ZM261.198 105.856L254.198 95.696H261.118L268.198 105.856H261.198ZM249.878 95.936L246.998 92.896H255.158C257.158 92.896 258.651 92.4693 259.638 91.616C260.625 90.736 261.118 89.536 261.118 88.016C261.118 86.4693 260.625 85.2693 259.638 84.416C258.651 83.5626 257.158 83.136 255.158 83.136H246.998L249.878 80.056V95.936ZM272.812 105.856V77.856H279.292V105.856H272.812ZM276.052 75.376C275.066 75.376 274.252 75.056 273.612 74.416C272.999 73.776 272.692 72.9626 272.692 71.976C272.692 71.016 272.999 70.216 273.612 69.576C274.252 68.936 275.066 68.616 276.052 68.616C277.012 68.616 277.812 68.936 278.452 69.576C279.092 70.216 279.412 71.016 279.412 71.976C279.412 72.9626 279.092 73.776 278.452 74.416C277.812 75.056 277.012 75.376 276.052 75.376ZM295.137 106.336C292.897 106.336 290.751 106.043 288.697 105.456C286.644 104.843 284.991 104.056 283.737 103.096L285.937 98.216C287.137 99.0693 288.551 99.776 290.177 100.336C291.831 100.869 293.497 101.136 295.177 101.136C296.457 101.136 297.484 101.016 298.257 100.776C299.057 100.509 299.644 100.149 300.017 99.696C300.391 99.2426 300.577 98.7226 300.577 98.136C300.577 97.3893 300.284 96.8026 299.697 96.376C299.111 95.9226 298.337 95.5626 297.377 95.296C296.417 95.0026 295.351 94.736 294.177 94.496C293.031 94.2293 291.871 93.9093 290.697 93.536C289.551 93.1626 288.497 92.6826 287.537 92.096C286.577 91.5093 285.791 90.736 285.177 89.776C284.591 88.816 284.297 87.5893 284.297 86.096C284.297 84.496 284.724 83.0426 285.577 81.736C286.457 80.4026 287.764 79.3493 289.497 78.576C291.257 77.776 293.457 77.376 296.097 77.376C297.857 77.376 299.591 77.5893 301.297 78.016C303.004 78.416 304.511 79.0293 305.817 79.856L303.817 84.776C302.511 84.0293 301.204 83.4826 299.897 83.136C298.591 82.7626 297.311 82.576 296.057 82.576C294.804 82.576 293.777 82.7226 292.977 83.016C292.177 83.3093 291.604 83.696 291.257 84.176C290.911 84.6293 290.737 85.1626 290.737 85.776C290.737 86.496 291.031 87.0826 291.617 87.536C292.204 87.9626 292.977 88.3093 293.937 88.576C294.897 88.8426 295.951 89.1093 297.097 89.376C298.271 89.6426 299.431 89.9493 300.577 90.296C301.751 90.6426 302.817 91.1093 303.777 91.696C304.737 92.2826 305.511 93.056 306.097 94.016C306.711 94.976 307.017 96.1893 307.017 97.656C307.017 99.2293 306.577 100.669 305.697 101.976C304.817 103.283 303.497 104.336 301.737 105.136C300.004 105.936 297.804 106.336 295.137 106.336ZM322.773 105.856V77.856H328.133L340.053 97.616H337.213L348.933 77.856H354.253L354.333 105.856H348.253L348.213 87.176H349.333L339.973 102.896H337.053L327.493 87.176H328.853V105.856H322.773ZM374.016 106.336C371.883 106.336 369.91 105.976 368.096 105.256C366.283 104.536 364.71 103.523 363.376 102.216C362.07 100.909 361.043 99.3493 360.296 97.536C359.576 95.7226 359.216 93.736 359.216 91.576V90.216H382.936V94.616H363.656L365.736 92.496C365.736 93.8293 365.923 95.0293 366.296 96.096C366.696 97.1626 367.256 98.0826 367.976 98.856C368.696 99.6026 369.563 100.176 370.576 100.576C371.59 100.976 372.736 101.176 374.016 101.176C375.296 101.176 376.443 100.976 377.456 100.576C378.47 100.176 379.323 99.6026 380.016 98.856C380.736 98.0826 381.283 97.176 381.656 96.136C382.03 95.096 382.216 93.9226 382.216 92.616V91.576C382.216 90.3226 381.99 89.1626 381.536 88.096C381.11 87.0293 380.51 86.1093 379.736 85.336C378.963 84.5626 378.043 83.9626 376.976 83.536C375.91 83.1093 374.763 82.896 373.536 82.896C372.576 82.896 371.603 83.016 370.616 83.256C369.63 83.496 368.683 83.856 367.776 84.336C366.896 84.816 366.11 85.4293 365.416 86.176L361.536 81.976C362.416 81.0693 363.483 80.2693 364.736 79.576C366.016 78.8826 367.403 78.3493 368.896 77.976C370.39 77.576 371.95 77.376 373.576 77.376C375.79 77.376 377.816 77.736 379.656 78.456C381.523 79.1493 383.136 80.1493 384.496 81.456C385.883 82.7626 386.936 84.296 387.656 86.056C388.403 87.816 388.776 89.736 388.776 91.816C388.776 93.9493 388.403 95.896 387.656 97.656C386.936 99.416 385.91 100.949 384.576 102.256C383.243 103.536 381.683 104.536 379.896 105.256C378.11 105.976 376.15 106.336 374.016 106.336ZM393.672 105.856V77.856H405.792C408.298 77.856 410.458 78.2693 412.272 79.096C414.085 79.896 415.485 81.056 416.472 82.576C417.458 84.096 417.952 85.9093 417.952 88.016C417.952 90.096 417.458 91.896 416.472 93.416C415.485 94.9093 414.085 96.056 412.272 96.856C410.458 97.656 408.298 98.056 405.792 98.056H397.272L400.152 95.216V105.856H393.672ZM411.472 105.856L404.472 95.696H411.392L418.472 105.856H411.472ZM400.152 95.936L397.272 92.896H405.432C407.432 92.896 408.925 92.4693 409.912 91.616C410.898 90.736 411.392 89.536 411.392 88.016C411.392 86.4693 410.898 85.2693 409.912 84.416C408.925 83.5626 407.432 83.136 405.432 83.136H397.272L400.152 80.056V95.936ZM428.886 99.456L428.526 91.976L441.926 77.856H449.126L437.046 90.856L433.446 94.696L428.886 99.456ZM423.086 105.856V77.856H429.526V105.856H423.086ZM442.246 105.856L432.286 93.656L436.526 89.056L449.806 105.856H442.246ZM464.719 106.336C462.586 106.336 460.613 105.976 458.799 105.256C456.986 104.536 455.413 103.523 454.079 102.216C452.773 100.909 451.746 99.3493 450.999 97.536C450.279 95.7226 449.919 93.736 449.919 91.576V90.216H473.639V94.616H454.359L456.439 92.496C456.439 93.8293 456.626 95.0293 456.999 96.096C457.399 97.1626 457.959 98.0826 458.679 98.856C459.399 99.6026 460.266 100.176 461.279 100.576C462.293 100.976 463.439 101.176 464.719 101.176C465.999 101.176 467.146 100.976 468.159 100.576C469.173 100.176 470.026 99.6026 470.719 98.856C471.439 98.0826 471.986 97.176 472.359 96.136C472.733 95.096 472.919 93.9226 472.919 92.616V91.576C472.919 90.3226 472.693 89.1626 472.239 88.096C471.813 87.0293 471.213 86.1093 470.439 85.336C469.666 84.5626 468.746 83.9626 467.679 83.536C466.613 83.1093 465.466 82.896 464.239 82.896C463.279 82.896 462.306 83.016 461.319 83.256C460.333 83.496 459.386 83.856 458.479 84.336C457.599 84.816 456.813 85.4293 456.119 86.176L452.239 81.976C453.119 81.0693 454.186 80.2693 455.439 79.576C456.719 78.8826 458.106 78.3493 459.599 77.976C461.093 77.576 462.653 77.376 464.279 77.376C466.493 77.376 468.519 77.736 470.359 78.456C472.226 79.1493 473.839 80.1493 475.199 81.456C476.586 82.7626 477.639 84.296 478.359 86.056C479.106 87.816 479.479 89.736 479.479 91.816C479.479 93.9493 479.106 95.896 478.359 97.656C477.639 99.416 476.613 100.949 475.279 102.256C473.946 103.536 472.386 104.536 470.599 105.256C468.813 105.976 466.853 106.336 464.719 106.336ZM482.301 105.856V101.656L499.621 80.776L500.421 83.136H482.621V77.856H506.181V82.056L488.901 102.936L488.101 100.576H506.781V105.856H482.301ZM510.937 105.856V77.856H517.417V105.856H510.937ZM514.177 75.376C513.191 75.376 512.377 75.056 511.737 74.416C511.124 73.776 510.817 72.9626 510.817 71.976C510.817 71.016 511.124 70.216 511.737 69.576C512.377 68.936 513.191 68.616 514.177 68.616C515.137 68.616 515.937 68.936 516.577 69.576C517.217 70.216 517.537 71.016 517.537 71.976C517.537 72.9626 517.217 73.776 516.577 74.416C515.937 75.056 515.137 75.376 514.177 75.376Z" fill="#FBFBFB"/>
</svg>
