<svg width="126" height="98" viewBox="0 0 126 98" fill="none" xmlns="http://www.w3.org/2000/svg">
<path d="M40.9496 67.375C40.4791 67.375 40.0085 67.442 39.5597 67.5836C37.0082 68.3895 34.3247 68.9062 31.4996 68.9062C28.6744 68.9062 25.991 68.3895 23.4376 67.5836C22.9887 67.442 22.5201 67.375 22.0496 67.375C9.83152 67.375 -0.0653831 77.0372 -0.000414374 88.9312C0.0271481 93.9575 4.27768 98 9.44959 98H53.5496C58.7215 98 62.972 93.9575 62.9996 88.9312C63.0646 77.0372 53.1677 67.375 40.9496 67.375ZM31.4996 61.25C41.9379 61.25 50.3996 53.0234 50.3996 42.875C50.3996 32.7266 41.9379 24.5 31.4996 24.5C21.0613 24.5 12.5996 32.7266 12.5996 42.875C12.5996 53.0234 21.0613 61.25 31.4996 61.25ZM116.55 0H40.9496C35.7383 0 31.4996 4.25879 31.4996 9.49184V18.375C36.1104 18.375 40.3786 19.6727 44.0996 21.782V12.25H113.4V67.375H100.8V55.125H75.5996V67.375H60.5898C64.3502 70.5696 67.1103 74.7882 68.4038 79.625H116.55C121.761 79.625 126 75.3662 126 70.1332V9.49184C126 4.25879 121.761 0 116.55 0Z" fill="#443E87"/>
</svg>
