<svg width="111" height="98" viewBox="0 0 111 98" fill="none" xmlns="http://www.w3.org/2000/svg">
<g clip-path="url(#clip0_31_187)">
<path fill-rule="evenodd" clip-rule="evenodd" d="M101.75 19.0556C99.2967 19.0556 96.944 19.916 95.2093 21.4475C93.4746 22.9791 92.5 25.0563 92.5 27.2222V32.6667H111V27.2222C111 25.0563 110.025 22.9791 108.291 21.4475C106.556 19.916 104.203 19.0556 101.75 19.0556ZM111 38.1111H92.5V83.0278L101.75 95.2778L111 83.0278V38.1111ZM0 8.16667V89.8333C0 91.9993 0.974551 94.0765 2.70926 95.608C4.44397 97.1396 6.79675 98 9.25 98H77.0833C79.5366 98 81.8894 97.1396 83.6241 95.608C85.3588 94.0765 86.3333 91.9993 86.3333 89.8333V8.16667C86.3333 6.00073 85.3588 3.92351 83.6241 2.39196C81.8894 0.860415 79.5366 0 77.0833 0H9.25C6.79675 0 4.44397 0.860415 2.70926 2.39196C0.974551 3.92351 0 6.00073 0 8.16667ZM43.1667 24.5C43.1667 23.778 43.4915 23.0856 44.0698 22.5751C44.648 22.0646 45.4322 21.7778 46.25 21.7778H70.9167C71.7344 21.7778 72.5187 22.0646 73.0969 22.5751C73.6751 23.0856 74 23.778 74 24.5C74 25.222 73.6751 25.9144 73.0969 26.4249C72.5187 26.9354 71.7344 27.2222 70.9167 27.2222H46.25C45.4322 27.2222 44.648 26.9354 44.0698 26.4249C43.4915 25.9144 43.1667 25.222 43.1667 24.5ZM46.25 32.6667C45.4322 32.6667 44.648 32.9535 44.0698 33.464C43.4915 33.9745 43.1667 34.6669 43.1667 35.3889C43.1667 36.1109 43.4915 36.8033 44.0698 37.3138C44.648 37.8243 45.4322 38.1111 46.25 38.1111H70.9167C71.7344 38.1111 72.5187 37.8243 73.0969 37.3138C73.6751 36.8033 74 36.1109 74 35.3889C74 34.6669 73.6751 33.9745 73.0969 33.464C72.5187 32.9535 71.7344 32.6667 70.9167 32.6667H46.25ZM43.1667 59.8889C43.1667 59.1669 43.4915 58.4745 44.0698 57.964C44.648 57.4535 45.4322 57.1667 46.25 57.1667H70.9167C71.7344 57.1667 72.5187 57.4535 73.0969 57.964C73.6751 58.4745 74 59.1669 74 59.8889C74 60.6109 73.6751 61.3033 73.0969 61.8138C72.5187 62.3243 71.7344 62.6111 70.9167 62.6111H46.25C45.4322 62.6111 44.648 62.3243 44.0698 61.8138C43.4915 61.3033 43.1667 60.6109 43.1667 59.8889ZM46.25 68.0556C45.4322 68.0556 44.648 68.3424 44.0698 68.8529C43.4915 69.3634 43.1667 70.0558 43.1667 70.7778C43.1667 71.4998 43.4915 72.1922 44.0698 72.7027C44.648 73.2132 45.4322 73.5 46.25 73.5H70.9167C71.7344 73.5 72.5187 73.2132 73.0969 72.7027C73.6751 72.1922 74 71.4998 74 70.7778C74 70.0558 73.6751 69.3634 73.0969 68.8529C72.5187 68.3424 71.7344 68.0556 70.9167 68.0556H46.25ZM18.5 59.8889V68.0556H27.75V59.8889H18.5ZM15.4167 54.4444H30.8333C31.6511 54.4444 32.4353 54.7313 33.0136 55.2418C33.5918 55.7523 33.9167 56.4447 33.9167 57.1667V70.7778C33.9167 71.4998 33.5918 72.1922 33.0136 72.7027C32.4353 73.2132 31.6511 73.5 30.8333 73.5H15.4167C14.5989 73.5 13.8147 73.2132 13.2364 72.7027C12.6582 72.1922 12.3333 71.4998 12.3333 70.7778V57.1667C12.3333 56.4447 12.6582 55.7523 13.2364 55.2418C13.8147 54.7313 14.5989 54.4444 15.4167 54.4444ZM36.0966 26.4246C36.6582 25.9112 36.969 25.2236 36.962 24.5098C36.955 23.796 36.6307 23.1133 36.059 22.6086C35.4873 22.1038 34.714 21.8175 33.9056 21.8113C33.0971 21.8051 32.3183 22.0795 31.7367 22.5754L21.5833 31.5397L17.5966 28.0198C17.0151 27.524 16.2362 27.2496 15.4278 27.2558C14.6193 27.262 13.846 27.5483 13.2743 28.053C12.7026 28.5577 12.3784 29.2405 12.3713 29.9542C12.3643 30.668 12.6751 31.3556 13.2368 31.8691L21.5833 39.2381L36.0966 26.4246Z" fill="#443E87"/>
</g>
<defs>
<clipPath id="clip0_31_187">
<rect width="111" height="98" fill="white"/>
</clipPath>
</defs>
</svg>
